<svg xmlns="http://www.w3.org/2000/svg" xmlns:xlink="http://www.w3.org/1999/xlink" version="1.1" width="1000" height="1000" viewBox="0 0 1000 1000" xml:space="preserve">
<desc>Created with Fabric.js 3.5.0</desc>
<defs>
</defs>
<rect x="0" y="0" width="100%" height="100%" fill="rgba(255,255,255,0)"/>
<g transform="matrix(1 0 0 1 500 500)" id="96676">
<g style="" vector-effect="non-scaling-stroke">
		<g transform="matrix(57.1429 0 0 57.1429 0.0002 -62.3375)">
<path style="stroke: none; stroke-width: 1; stroke-dasharray: none; stroke-linecap: butt; stroke-dashoffset: 0; stroke-linejoin: miter; stroke-miterlimit: 4; is-custom-font: none; font-file-url: none; fill: rgb(255,218,228); fill-rule: nonzero; opacity: 1;" transform=" translate(-7, -5.9091)" d="M 11.90909086 3.18181822 H 2.09090914 c -0.6 0 -1.09090908 0.49090909 -1.09090908 1.09090908 v 4.36363632 h 11.99999988 V 4.2727273 c 0 -0.6 -0.49090909 -1.09090908 -1.09090908 -1.09090908 z" stroke-linecap="round"/>
</g>
		<g transform="matrix(57.1429 0 0 57.1429 0.0002 155.8443)">
<path style="stroke: none; stroke-width: 1; stroke-dasharray: none; stroke-linecap: butt; stroke-dashoffset: 0; stroke-linejoin: miter; stroke-miterlimit: 4; is-custom-font: none; font-file-url: none; fill: rgb(59,59,59); fill-rule: nonzero; opacity: 1;" transform=" translate(-7, -9.7273)" d="M 1.00000006 8.63636362 V 9.7272727 c 0 0.6 0.49090909 1.09090908 1.09090908 1.09090908 h 4.63636359 V 9.45454543 c 0 -0.16363636 0.1090909 -0.27272727 0.27272727 -0.27272727 c 0.16363636 0 0.27272727 0.1090909 0.27272727 0.27272727 v 1.36363635 h 4.63636359 c 0.6 0 1.09090908 -0.49090909 1.09090908 -1.09090908 V 8.63636362 H 1.00000006 z" stroke-linecap="round"/>
</g>
		<g transform="matrix(57.1429 0 0 57.1429 0.0002 171.4286)">
<path style="stroke: none; stroke-width: 1; stroke-dasharray: none; stroke-linecap: butt; stroke-dashoffset: 0; stroke-linejoin: miter; stroke-miterlimit: 4; is-custom-font: none; font-file-url: none; fill: rgb(255,152,0); fill-rule: nonzero; opacity: 1;" transform=" translate(-7, -10)" d="M 2.36363641 9.18181816 h 0.54545454 v 1.63636362 h -0.54545454 z m 1.09090908 0 h 0.54545454 v 1.63636362 h -0.54545454 z m 1.09090908 0 h 0.54545454 v 1.63636362 h -0.54545454 z m 1.09090908 0 h 0.54545454 v 1.63636362 h -0.54545454 z m 2.18181816 0 h 0.54545454 v 1.63636362 h -0.54545454 z m 1.09090908 0 h 0.54545454 v 1.63636362 h -0.54545454 z m 1.09090908 0 h 0.54545454 v 1.63636362 h -0.54545454 z m 1.09090908 0 h 0.54545454 v 1.63636362 h -0.54545454 z" stroke-linecap="round"/>
</g>
		<g transform="matrix(57.1429 0 0 57.1429 0.0002 -46.7532)">
<path style="stroke: none; stroke-width: 1; stroke-dasharray: none; stroke-linecap: butt; stroke-dashoffset: 0; stroke-linejoin: miter; stroke-miterlimit: 4; is-custom-font: none; font-file-url: none; fill: rgb(59,59,59); fill-rule: nonzero; opacity: 1;" transform=" translate(-7, -6.1818)" d="M 5.90909092 4.81818184 h 2.18181816 v 2.7272727 H 5.90909092 z m 3.27272724 0 h 2.18181816 v 2.7272727 H 9.18181816 z m -6.54545448 0 h 2.18181816 v 2.7272727 H 2.63636368 z" stroke-linecap="round"/>
</g>
</g>
</g>
</svg>