<svg xmlns="http://www.w3.org/2000/svg" xmlns:xlink="http://www.w3.org/1999/xlink" version="1.1" width="1000" height="1000" viewBox="0 0 1000 1000" xml:space="preserve">
<desc>Created with Fabric.js 3.5.0</desc>
<defs>
</defs>
<rect x="0" y="0" width="100%" height="100%" fill="rgba(255,255,255,0)"/>
<g transform="matrix(0.7093 0.7049 -0.7049 0.7093 500.0002 500)" id="460029">
<g style="" vector-effect="non-scaling-stroke">
		<g transform="matrix(9.4281 -9.4281 9.4281 9.4281 -14.1431 -14.1416)" id="Rectangle-529">
<rect style="stroke: rgb(255,255,255); stroke-width: 2; stroke-dasharray: none; stroke-linecap: butt; stroke-dashoffset: 0; stroke-linejoin: miter; stroke-miterlimit: 4; is-custom-font: none; font-file-url: none; fill: rgb(255,0,128); fill-rule: evenodd; opacity: 1;" x="-30" y="-8.5" rx="0" ry="0" width="60" height="17"/>
</g>
		<g transform="matrix(9.4281 -9.4281 9.4281 9.4281 -225.9521 198.3122)" id="Rectangle-530">
<rect style="stroke: rgb(255,255,255); stroke-width: 2; stroke-dasharray: none; stroke-linecap: butt; stroke-dashoffset: 0; stroke-linejoin: miter; stroke-miterlimit: 4; is-custom-font: none; font-file-url: none; fill: rgb(255,218,228); fill-rule: evenodd; opacity: 1;" x="-2.5" y="-5.4658" rx="2" ry="2" width="5" height="10.9316"/>
</g>
		<g transform="matrix(9.4281 -9.4281 9.4281 9.4281 -56.2465 28.6066)" id="Rectangle-530">
<rect style="stroke: rgb(255,255,255); stroke-width: 2; stroke-dasharray: none; stroke-linecap: butt; stroke-dashoffset: 0; stroke-linejoin: miter; stroke-miterlimit: 4; is-custom-font: none; font-file-url: none; fill: rgb(255,218,228); fill-rule: evenodd; opacity: 1;" x="-2.5" y="-5.4658" rx="2" ry="2" width="5" height="10.9316"/>
</g>
		<g transform="matrix(9.4281 -9.4281 9.4281 9.4281 113.4592 -141.099)" id="Rectangle-530">
<rect style="stroke: rgb(255,255,255); stroke-width: 2; stroke-dasharray: none; stroke-linecap: butt; stroke-dashoffset: 0; stroke-linejoin: miter; stroke-miterlimit: 4; is-custom-font: none; font-file-url: none; fill: rgb(255,218,228); fill-rule: evenodd; opacity: 1;" x="-2.5" y="-5.4658" rx="2" ry="2" width="5" height="10.9316"/>
</g>
		<g transform="matrix(9.4281 -9.4281 9.4281 9.4281 -141.0993 113.4594)" id="Rectangle-530">
<rect style="stroke: rgb(255,255,255); stroke-width: 2; stroke-dasharray: none; stroke-linecap: butt; stroke-dashoffset: 0; stroke-linejoin: miter; stroke-miterlimit: 4; is-custom-font: none; font-file-url: none; fill: rgb(255,218,228); fill-rule: evenodd; opacity: 1;" x="-2.5" y="-5.4658" rx="2" ry="2" width="5" height="10.9316"/>
</g>
		<g transform="matrix(9.4281 -9.4281 9.4281 9.4281 28.6064 -56.2462)" id="Rectangle-530">
<rect style="stroke: rgb(255,255,255); stroke-width: 2; stroke-dasharray: none; stroke-linecap: butt; stroke-dashoffset: 0; stroke-linejoin: miter; stroke-miterlimit: 4; is-custom-font: none; font-file-url: none; fill: rgb(255,218,228); fill-rule: evenodd; opacity: 1;" x="-2.5" y="-5.4658" rx="2" ry="2" width="5" height="10.9316"/>
</g>
		<g transform="matrix(9.4281 -9.4281 9.4281 9.4281 198.312 -225.9518)" id="Rectangle-530">
<rect style="stroke: rgb(255,255,255); stroke-width: 2; stroke-dasharray: none; stroke-linecap: butt; stroke-dashoffset: 0; stroke-linejoin: miter; stroke-miterlimit: 4; is-custom-font: none; font-file-url: none; fill: rgb(255,218,228); fill-rule: evenodd; opacity: 1;" x="-2.5" y="-5.4658" rx="2" ry="2" width="5" height="10.9316"/>
</g>
		<g transform="matrix(9.4281 -9.4281 9.4281 9.4281 -205.061 360.6244)" id="Line">
<path style="stroke: rgb(255,255,255); stroke-width: 2; stroke-dasharray: none; stroke-linecap: square; stroke-dashoffset: 0; stroke-linejoin: miter; stroke-miterlimit: 4; is-custom-font: none; font-file-url: none; fill: none; fill-rule: evenodd; opacity: 1;" transform=" translate(-1, -18.25)" d="M 1 16.5 L 1 20" stroke-linecap="round"/>
</g>
		<g transform="matrix(9.4281 -9.4281 9.4281 9.4281 -163.2239 327.0368)" id="Line-165">
<path style="stroke: rgb(255,255,255); stroke-width: 2; stroke-dasharray: none; stroke-linecap: square; stroke-dashoffset: 0; stroke-linejoin: miter; stroke-miterlimit: 4; is-custom-font: none; font-file-url: none; fill: none; fill-rule: evenodd; opacity: 1;" transform=" translate(-5, -18.6875)" d="M 5 17.375 L 5 20" stroke-linecap="round"/>
</g>
		<g transform="matrix(9.4281 -9.4281 9.4281 9.4281 138.475 25.3379)" id="Line-165">
<path style="stroke: rgb(255,255,255); stroke-width: 2; stroke-dasharray: none; stroke-linecap: square; stroke-dashoffset: 0; stroke-linejoin: miter; stroke-miterlimit: 4; is-custom-font: none; font-file-url: none; fill: none; fill-rule: evenodd; opacity: 1;" transform=" translate(-37, -18.6875)" d="M 37 17.375 L 37 20" stroke-linecap="round"/>
</g>
		<g transform="matrix(9.4281 -9.4281 9.4281 9.4281 -50.0868 213.8997)" id="Line-165">
<path style="stroke: rgb(255,255,255); stroke-width: 2; stroke-dasharray: none; stroke-linecap: square; stroke-dashoffset: 0; stroke-linejoin: miter; stroke-miterlimit: 4; is-custom-font: none; font-file-url: none; fill: none; fill-rule: evenodd; opacity: 1;" transform=" translate(-17, -18.6875)" d="M 17 17.375 L 17 20" stroke-linecap="round"/>
</g>
		<g transform="matrix(9.4281 -9.4281 9.4281 9.4281 251.6121 -87.7992)" id="Line-165">
<path style="stroke: rgb(255,255,255); stroke-width: 2; stroke-dasharray: none; stroke-linecap: square; stroke-dashoffset: 0; stroke-linejoin: miter; stroke-miterlimit: 4; is-custom-font: none; font-file-url: none; fill: none; fill-rule: evenodd; opacity: 1;" transform=" translate(-49, -18.6875)" d="M 49 17.375 L 49 20" stroke-linecap="round"/>
</g>
		<g transform="matrix(9.4281 -9.4281 9.4281 9.4281 -125.5115 289.3245)" id="Line-166">
<path style="stroke: rgb(255,255,255); stroke-width: 2; stroke-dasharray: none; stroke-linecap: square; stroke-dashoffset: 0; stroke-linejoin: miter; stroke-miterlimit: 4; is-custom-font: none; font-file-url: none; fill: none; fill-rule: evenodd; opacity: 1;" transform=" translate(-9, -18.6875)" d="M 9 17.375 L 9 20" stroke-linecap="round"/>
</g>
		<g transform="matrix(9.4281 -9.4281 9.4281 9.4281 176.1874 -12.3744)" id="Line-166">
<path style="stroke: rgb(255,255,255); stroke-width: 2; stroke-dasharray: none; stroke-linecap: square; stroke-dashoffset: 0; stroke-linejoin: miter; stroke-miterlimit: 4; is-custom-font: none; font-file-url: none; fill: none; fill-rule: evenodd; opacity: 1;" transform=" translate(-41, -18.6875)" d="M 41 17.375 L 41 20" stroke-linecap="round"/>
</g>
		<g transform="matrix(9.4281 -9.4281 9.4281 9.4281 -12.3744 176.1874)" id="Line-166">
<path style="stroke: rgb(255,255,255); stroke-width: 2; stroke-dasharray: none; stroke-linecap: square; stroke-dashoffset: 0; stroke-linejoin: miter; stroke-miterlimit: 4; is-custom-font: none; font-file-url: none; fill: none; fill-rule: evenodd; opacity: 1;" transform=" translate(-21, -18.6875)" d="M 21 17.375 L 21 20" stroke-linecap="round"/>
</g>
		<g transform="matrix(9.4281 -9.4281 9.4281 9.4281 289.3245 -125.5115)" id="Line-166">
<path style="stroke: rgb(255,255,255); stroke-width: 2; stroke-dasharray: none; stroke-linecap: square; stroke-dashoffset: 0; stroke-linejoin: miter; stroke-miterlimit: 4; is-custom-font: none; font-file-url: none; fill: none; fill-rule: evenodd; opacity: 1;" transform=" translate(-53, -18.6875)" d="M 53 17.375 L 53 20" stroke-linecap="round"/>
</g>
		<g transform="matrix(9.4281 -9.4281 9.4281 9.4281 -87.7991 251.6121)" id="Line-167">
<path style="stroke: rgb(255,255,255); stroke-width: 2; stroke-dasharray: none; stroke-linecap: square; stroke-dashoffset: 0; stroke-linejoin: miter; stroke-miterlimit: 4; is-custom-font: none; font-file-url: none; fill: none; fill-rule: evenodd; opacity: 1;" transform=" translate(-13, -18.6875)" d="M 13 17.375 L 13 20" stroke-linecap="round"/>
</g>
		<g transform="matrix(9.4281 -9.4281 9.4281 9.4281 213.8998 -50.0868)" id="Line-167">
<path style="stroke: rgb(255,255,255); stroke-width: 2; stroke-dasharray: none; stroke-linecap: square; stroke-dashoffset: 0; stroke-linejoin: miter; stroke-miterlimit: 4; is-custom-font: none; font-file-url: none; fill: none; fill-rule: evenodd; opacity: 1;" transform=" translate(-45, -18.6875)" d="M 45 17.375 L 45 20" stroke-linecap="round"/>
</g>
		<g transform="matrix(9.4281 -9.4281 9.4281 9.4281 25.3379 138.475)" id="Line-167">
<path style="stroke: rgb(255,255,255); stroke-width: 2; stroke-dasharray: none; stroke-linecap: square; stroke-dashoffset: 0; stroke-linejoin: miter; stroke-miterlimit: 4; is-custom-font: none; font-file-url: none; fill: none; fill-rule: evenodd; opacity: 1;" transform=" translate(-25, -18.6875)" d="M 25 17.375 L 25 20" stroke-linecap="round"/>
</g>
		<g transform="matrix(9.4281 -9.4281 9.4281 9.4281 327.0368 -163.2239)" id="Line-167">
<path style="stroke: rgb(255,255,255); stroke-width: 2; stroke-dasharray: none; stroke-linecap: square; stroke-dashoffset: 0; stroke-linejoin: miter; stroke-miterlimit: 4; is-custom-font: none; font-file-url: none; fill: none; fill-rule: evenodd; opacity: 1;" transform=" translate(-57, -18.6875)" d="M 57 17.375 L 57 20" stroke-linecap="round"/>
</g>
		<g transform="matrix(9.4281 -9.4281 9.4281 9.4281 360.6244 -205.061)" id="Line">
<path style="stroke: rgb(255,255,255); stroke-width: 2; stroke-dasharray: none; stroke-linecap: square; stroke-dashoffset: 0; stroke-linejoin: miter; stroke-miterlimit: 4; is-custom-font: none; font-file-url: none; fill: none; fill-rule: evenodd; opacity: 1;" transform=" translate(-61, -18.25)" d="M 61 16.5 L 61 20" stroke-linecap="round"/>
</g>
		<g transform="matrix(9.4281 -9.4281 9.4281 9.4281 80.1387 80.1388)" id="Rectangle-536">
<rect style="stroke: rgb(255,255,255); stroke-width: 2; stroke-dasharray: none; stroke-linecap: butt; stroke-dashoffset: 0; stroke-linejoin: miter; stroke-miterlimit: 4; is-custom-font: none; font-file-url: none; fill: none; fill-rule: evenodd; opacity: 1;" x="-2" y="-1.5" rx="0" ry="0" width="4" height="3"/>
</g>
</g>
</g>
</svg>