<svg xmlns="http://www.w3.org/2000/svg" xmlns:xlink="http://www.w3.org/1999/xlink" version="1.1" width="1000" height="1000" viewBox="0 0 1000 1000" xml:space="preserve">
<desc>Created with Fabric.js 3.5.0</desc>
<defs>
</defs>
<rect x="0" y="0" width="100%" height="100%" fill="rgba(255,255,255,0)"/>
<g transform="matrix(13.7931 0 0 13.7931 500 500)" id="248683">
<g style="" vector-effect="non-scaling-stroke">
		<g transform="matrix(1 0 0 1 0 0)" id="Capa_1">
<path style="stroke: none; stroke-width: 1; stroke-dasharray: none; stroke-linecap: butt; stroke-dashoffset: 0; stroke-linejoin: miter; stroke-miterlimit: 4; is-custom-font: none; font-file-url: none; fill: rgb(255,218,228); fill-rule: nonzero; opacity: 1;" transform=" translate(-29, -29)" d="M 55.911 50 H 2.089 C 0.935 50 0 49.065 0 47.911 V 10.089 C 0 8.935 0.935 8 2.089 8 h 53.822 C 57.065 8 58 8.935 58 10.089 v 37.822 C 58 49.065 57.065 50 55.911 50 z" stroke-linecap="round"/>
</g>
		<g transform="matrix(1 0 0 1 -25 17)" id="Capa_1">
<circle style="stroke: none; stroke-width: 1; stroke-dasharray: none; stroke-linecap: butt; stroke-dashoffset: 0; stroke-linejoin: miter; stroke-miterlimit: 4; is-custom-font: none; font-file-url: none; fill: rgb(59,59,59); fill-rule: nonzero; opacity: 1;" cx="0" cy="0" r="1"/>
</g>
		<g transform="matrix(1 0 0 1 25 -17)" id="Capa_1">
<circle style="stroke: none; stroke-width: 1; stroke-dasharray: none; stroke-linecap: butt; stroke-dashoffset: 0; stroke-linejoin: miter; stroke-miterlimit: 4; is-custom-font: none; font-file-url: none; fill: rgb(59,59,59); fill-rule: nonzero; opacity: 1;" cx="0" cy="0" r="1"/>
</g>
		<g transform="matrix(1 0 0 1 25 17)" id="Capa_1">
<circle style="stroke: none; stroke-width: 1; stroke-dasharray: none; stroke-linecap: butt; stroke-dashoffset: 0; stroke-linejoin: miter; stroke-miterlimit: 4; is-custom-font: none; font-file-url: none; fill: rgb(59,59,59); fill-rule: nonzero; opacity: 1;" cx="0" cy="0" r="1"/>
</g>
		<g transform="matrix(0.9155 -0.4022 0.4022 0.9155 7.5386 8.2106)" id="Capa_1">
<ellipse style="stroke: rgb(255,255,255); stroke-width: 2; stroke-dasharray: none; stroke-linecap: butt; stroke-dashoffset: 0; stroke-linejoin: miter; stroke-miterlimit: 10; is-custom-font: none; font-file-url: none; fill: rgb(255,0,128); fill-rule: nonzero; opacity: 1;" cx="0" cy="0" rx="7.449" ry="4.74"/>
</g>
		<g transform="matrix(1 0 0 1 -13 -9)" id="Capa_1">
<path style="stroke: none; stroke-width: 1; stroke-dasharray: none; stroke-linecap: butt; stroke-dashoffset: 0; stroke-linejoin: miter; stroke-miterlimit: 4; is-custom-font: none; font-file-url: none; fill: rgb(59,59,59); fill-rule: nonzero; opacity: 1;" transform=" translate(-16, -20)" d="M 8 32 H 0 V 10.089 C 0 8.935 0.935 8 2.089 8 H 32 v 0 C 32 21.255 21.255 32 8 32 z" stroke-linecap="round"/>
</g>
		<g transform="matrix(1 0 0 1 26 1)" id="Capa_1">
<polygon style="stroke: none; stroke-width: 1; stroke-dasharray: none; stroke-linecap: butt; stroke-dashoffset: 0; stroke-linejoin: miter; stroke-miterlimit: 4; is-custom-font: none; font-file-url: none; fill: rgb(40,50,56); fill-rule: nonzero; opacity: 1;" points="3,12 -1,12 -3,9 -3,-12 3,-12 "/>
</g>
		<g transform="matrix(1 0 0 1 27 -8)" id="Capa_1">
<rect style="stroke: none; stroke-width: 1; stroke-dasharray: none; stroke-linecap: butt; stroke-dashoffset: 0; stroke-linejoin: miter; stroke-miterlimit: 4; is-custom-font: none; font-file-url: none; fill: rgb(211,170,110); fill-rule: nonzero; opacity: 1;" x="-2" y="-1" rx="0" ry="0" width="4" height="2"/>
</g>
		<g transform="matrix(1 0 0 1 27 -5)" id="Capa_1">
<rect style="stroke: none; stroke-width: 1; stroke-dasharray: none; stroke-linecap: butt; stroke-dashoffset: 0; stroke-linejoin: miter; stroke-miterlimit: 4; is-custom-font: none; font-file-url: none; fill: rgb(211,170,110); fill-rule: nonzero; opacity: 1;" x="-2" y="-1" rx="0" ry="0" width="4" height="2"/>
</g>
		<g transform="matrix(1 0 0 1 27 -2)" id="Capa_1">
<rect style="stroke: none; stroke-width: 1; stroke-dasharray: none; stroke-linecap: butt; stroke-dashoffset: 0; stroke-linejoin: miter; stroke-miterlimit: 4; is-custom-font: none; font-file-url: none; fill: rgb(211,170,110); fill-rule: nonzero; opacity: 1;" x="-2" y="-1" rx="0" ry="0" width="4" height="2"/>
</g>
		<g transform="matrix(1 0 0 1 27 1)" id="Capa_1">
<rect style="stroke: none; stroke-width: 1; stroke-dasharray: none; stroke-linecap: butt; stroke-dashoffset: 0; stroke-linejoin: miter; stroke-miterlimit: 4; is-custom-font: none; font-file-url: none; fill: rgb(211,170,110); fill-rule: nonzero; opacity: 1;" x="-2" y="-1" rx="0" ry="0" width="4" height="2"/>
</g>
		<g transform="matrix(1 0 0 1 27.5 10)" id="Capa_1">
<rect style="stroke: none; stroke-width: 1; stroke-dasharray: none; stroke-linecap: butt; stroke-dashoffset: 0; stroke-linejoin: miter; stroke-miterlimit: 4; is-custom-font: none; font-file-url: none; fill: rgb(211,170,110); fill-rule: nonzero; opacity: 1;" x="-1.5" y="-1" rx="0" ry="0" width="3" height="2"/>
</g>
		<g transform="matrix(1 0 0 1 27 7)" id="Capa_1">
<rect style="stroke: none; stroke-width: 1; stroke-dasharray: none; stroke-linecap: butt; stroke-dashoffset: 0; stroke-linejoin: miter; stroke-miterlimit: 4; is-custom-font: none; font-file-url: none; fill: rgb(211,170,110); fill-rule: nonzero; opacity: 1;" x="-2" y="-1" rx="0" ry="0" width="4" height="2"/>
</g>
		<g transform="matrix(1 0 0 1 -25 -3)" id="Capa_1">
<rect style="stroke: none; stroke-width: 1; stroke-dasharray: none; stroke-linecap: butt; stroke-dashoffset: 0; stroke-linejoin: miter; stroke-miterlimit: 4; is-custom-font: none; font-file-url: none; fill: rgb(255,255,255); fill-rule: nonzero; opacity: 1;" x="-1" y="-1" rx="0" ry="0" width="2" height="2"/>
</g>
		<g transform="matrix(1 0 0 1 -25 -6)" id="Capa_1">
<rect style="stroke: none; stroke-width: 1; stroke-dasharray: none; stroke-linecap: butt; stroke-dashoffset: 0; stroke-linejoin: miter; stroke-miterlimit: 4; is-custom-font: none; font-file-url: none; fill: rgb(255,255,255); fill-rule: nonzero; opacity: 1;" x="-1" y="-1" rx="0" ry="0" width="2" height="2"/>
</g>
		<g transform="matrix(1 0 0 1 -25 -9)" id="Capa_1">
<rect style="stroke: none; stroke-width: 1; stroke-dasharray: none; stroke-linecap: butt; stroke-dashoffset: 0; stroke-linejoin: miter; stroke-miterlimit: 4; is-custom-font: none; font-file-url: none; fill: rgb(255,255,255); fill-rule: nonzero; opacity: 1;" x="-1" y="-1" rx="0" ry="0" width="2" height="2"/>
</g>
		<g transform="matrix(1 0 0 1 -25 -12)" id="Capa_1">
<rect style="stroke: none; stroke-width: 1; stroke-dasharray: none; stroke-linecap: butt; stroke-dashoffset: 0; stroke-linejoin: miter; stroke-miterlimit: 4; is-custom-font: none; font-file-url: none; fill: rgb(255,255,255); fill-rule: nonzero; opacity: 1;" x="-1" y="-1" rx="0" ry="0" width="2" height="2"/>
</g>
		<g transform="matrix(1 0 0 1 -25 -15)" id="Capa_1">
<rect style="stroke: none; stroke-width: 1; stroke-dasharray: none; stroke-linecap: butt; stroke-dashoffset: 0; stroke-linejoin: miter; stroke-miterlimit: 4; is-custom-font: none; font-file-url: none; fill: rgb(255,255,255); fill-rule: nonzero; opacity: 1;" x="-1" y="-1" rx="0" ry="0" width="2" height="2"/>
</g>
		<g transform="matrix(1 0 0 1 -13.5 -15)" id="Capa_1">
<rect style="stroke: none; stroke-width: 1; stroke-dasharray: none; stroke-linecap: butt; stroke-dashoffset: 0; stroke-linejoin: miter; stroke-miterlimit: 4; is-custom-font: none; font-file-url: none; fill: rgb(255,255,255); fill-rule: nonzero; opacity: 1;" x="-6.5" y="-1" rx="0" ry="0" width="13" height="2"/>
</g>
		<g transform="matrix(1 0 0 1 -15 -12)" id="Capa_1">
<rect style="stroke: none; stroke-width: 1; stroke-dasharray: none; stroke-linecap: butt; stroke-dashoffset: 0; stroke-linejoin: miter; stroke-miterlimit: 4; is-custom-font: none; font-file-url: none; fill: rgb(255,255,255); fill-rule: nonzero; opacity: 1;" x="-5" y="-1" rx="0" ry="0" width="10" height="2"/>
</g>
		<g transform="matrix(1 0 0 1 -14.5 -9)" id="Capa_1">
<rect style="stroke: none; stroke-width: 1; stroke-dasharray: none; stroke-linecap: butt; stroke-dashoffset: 0; stroke-linejoin: miter; stroke-miterlimit: 4; is-custom-font: none; font-file-url: none; fill: rgb(255,255,255); fill-rule: nonzero; opacity: 1;" x="-5.5" y="-1" rx="0" ry="0" width="11" height="2"/>
</g>
		<g transform="matrix(1 0 0 1 -18 -6)" id="Capa_1">
<rect style="stroke: none; stroke-width: 1; stroke-dasharray: none; stroke-linecap: butt; stroke-dashoffset: 0; stroke-linejoin: miter; stroke-miterlimit: 4; is-custom-font: none; font-file-url: none; fill: rgb(255,255,255); fill-rule: nonzero; opacity: 1;" x="-2" y="-1" rx="0" ry="0" width="4" height="2"/>
</g>
</g>
</g>
</svg>