<svg xmlns="http://www.w3.org/2000/svg" xmlns:xlink="http://www.w3.org/1999/xlink" version="1.1" width="1000" height="1000" viewBox="0 0 1000 1000" xml:space="preserve">
<desc>Created with Fabric.js 3.5.0</desc>
<defs>
</defs>
<rect x="0" y="0" width="100%" height="100%" fill="rgba(255,255,255,0)"/>
<g transform="matrix(13.5593 0 0 13.5593 500 500)" id="481321">
<g style="" vector-effect="non-scaling-stroke">
		<g transform="matrix(1 0 0 1 2 -1)" id="Capa_1">
<rect style="stroke: none; stroke-width: 1; stroke-dasharray: none; stroke-linecap: butt; stroke-dashoffset: 0; stroke-linejoin: miter; stroke-miterlimit: 4; is-custom-font: none; font-file-url: none; fill: rgb(56,69,79); fill-rule: nonzero; opacity: 1;" x="-27.5" y="-16" rx="0" ry="0" width="55" height="32"/>
</g>
		<g transform="matrix(1 0 0 1 -22.5 -14)" id="Capa_1">
<circle style="stroke: none; stroke-width: 1; stroke-dasharray: none; stroke-linecap: butt; stroke-dashoffset: 0; stroke-linejoin: miter; stroke-miterlimit: 4; is-custom-font: none; font-file-url: none; fill: rgb(84,106,121); fill-rule: nonzero; opacity: 1;" cx="0" cy="0" r="1"/>
</g>
		<g transform="matrix(1 0 0 1 -22.5 12)" id="Capa_1">
<circle style="stroke: none; stroke-width: 1; stroke-dasharray: none; stroke-linecap: butt; stroke-dashoffset: 0; stroke-linejoin: miter; stroke-miterlimit: 4; is-custom-font: none; font-file-url: none; fill: rgb(84,106,121); fill-rule: nonzero; opacity: 1;" cx="0" cy="0" r="1"/>
</g>
		<g transform="matrix(1 0 0 1 26.5 -14)" id="Capa_1">
<circle style="stroke: none; stroke-width: 1; stroke-dasharray: none; stroke-linecap: butt; stroke-dashoffset: 0; stroke-linejoin: miter; stroke-miterlimit: 4; is-custom-font: none; font-file-url: none; fill: rgb(84,106,121); fill-rule: nonzero; opacity: 1;" cx="0" cy="0" r="1"/>
</g>
		<g transform="matrix(1 0 0 1 26.5 12)" id="Capa_1">
<circle style="stroke: none; stroke-width: 1; stroke-dasharray: none; stroke-linecap: butt; stroke-dashoffset: 0; stroke-linejoin: miter; stroke-miterlimit: 4; is-custom-font: none; font-file-url: none; fill: rgb(84,106,121); fill-rule: nonzero; opacity: 1;" cx="0" cy="0" r="1"/>
</g>
		<g transform="matrix(1 0 0 1 -28 4.5)" id="Capa_1">
<rect style="stroke: none; stroke-width: 1; stroke-dasharray: none; stroke-linecap: butt; stroke-dashoffset: 0; stroke-linejoin: miter; stroke-miterlimit: 4; is-custom-font: none; font-file-url: none; fill: rgb(131,149,148); fill-rule: nonzero; opacity: 1;" x="-1.5" y="-6.5" rx="0" ry="0" width="3" height="13"/>
</g>
		<g transform="matrix(1 0 0 1 -27.5 -4)" id="Capa_1">
<path style="stroke: none; stroke-width: 1; stroke-dasharray: none; stroke-linecap: butt; stroke-dashoffset: 0; stroke-linejoin: miter; stroke-miterlimit: 4; is-custom-font: none; font-file-url: none; fill: rgb(243,204,109); fill-rule: nonzero; opacity: 1;" transform=" translate(-2, -25.5)" d="M 3 26.5 H 1 c -0.553 0 -1 -0.447 -1 -1 s 0.447 -1 1 -1 h 2 c 0.553 0 1 0.447 1 1 S 3.553 26.5 3 26.5 z" stroke-linecap="round"/>
</g>
		<g transform="matrix(1 0 0 1 -27.5 13)" id="Capa_1">
<path style="stroke: none; stroke-width: 1; stroke-dasharray: none; stroke-linecap: butt; stroke-dashoffset: 0; stroke-linejoin: miter; stroke-miterlimit: 4; is-custom-font: none; font-file-url: none; fill: rgb(243,204,109); fill-rule: nonzero; opacity: 1;" transform=" translate(-2, -42.5)" d="M 3 43.5 H 1 c -0.553 0 -1 -0.447 -1 -1 s 0.447 -1 1 -1 h 2 c 0.553 0 1 0.447 1 1 S 3.553 43.5 3 43.5 z" stroke-linecap="round"/>
</g>
		<g transform="matrix(1 0 0 1 -28 -12)" id="Capa_1">
<rect style="stroke: none; stroke-width: 1; stroke-dasharray: none; stroke-linecap: butt; stroke-dashoffset: 0; stroke-linejoin: miter; stroke-miterlimit: 4; is-custom-font: none; font-file-url: none; fill: rgb(131,149,148); fill-rule: nonzero; opacity: 1;" x="-1.5" y="-2" rx="0" ry="0" width="3" height="4"/>
</g>
		<g transform="matrix(1 0 0 1 -5.5 17)" id="Capa_1">
<rect style="stroke: none; stroke-width: 1; stroke-dasharray: none; stroke-linecap: butt; stroke-dashoffset: 0; stroke-linejoin: miter; stroke-miterlimit: 4; is-custom-font: none; font-file-url: none; fill: rgb(40,129,47); fill-rule: nonzero; opacity: 1;" x="-12" y="-2" rx="0" ry="0" width="24" height="4"/>
</g>
		<g transform="matrix(1 0 0 1 -11.9715 -1)" id="Capa_1">
<path style="stroke: none; stroke-width: 1; stroke-dasharray: none; stroke-linecap: butt; stroke-dashoffset: 0; stroke-linejoin: miter; stroke-miterlimit: 4; is-custom-font: none; font-file-url: none; fill: rgb(255,0,128); fill-rule: nonzero; opacity: 1;" transform=" translate(-17.5285, -28.5)" d="M 24.389 38.655 c -1.76 -2.032 -2.974 -4.996 -3.295 -8.376 c -0.003 -0.025 -0.005 -0.05 -0.008 -0.075 C 21.035 29.645 21 29.079 21 28.5 s 0.035 -1.145 0.086 -1.704 c 0.003 -0.025 0.005 -0.05 0.008 -0.075 c 0.321 -3.38 1.535 -6.344 3.295 -8.376 c 0.781 -1.046 1.67 -2.005 2.667 -2.845 H 17 c -4.971 0 -9 5.82 -9 13 s 4.029 13 9 13 h 10.057 C 26.059 40.66 25.171 39.7 24.389 38.655 z" stroke-linecap="round"/>
</g>
		<g transform="matrix(1 0 0 1 10.5 -1)" id="Capa_1">
<path style="stroke: none; stroke-width: 1; stroke-dasharray: none; stroke-linecap: butt; stroke-dashoffset: 0; stroke-linejoin: miter; stroke-miterlimit: 4; is-custom-font: none; font-file-url: none; fill: rgb(40,50,56); fill-rule: nonzero; opacity: 1;" transform=" translate(-40, -28.5)" d="M 34.846 41.5 C 29.534 39.394 26 34.23 26 28.5 s 3.534 -10.894 8.846 -13 h 10.309 C 50.466 17.606 54 22.77 54 28.5 s -3.534 10.894 -8.846 13 H 34.846 z" stroke-linecap="round"/>
</g>
		<g transform="matrix(1 0 0 1 10.5 -1)" id="Capa_1">
<circle style="stroke: none; stroke-width: 1; stroke-dasharray: none; stroke-linecap: butt; stroke-dashoffset: 0; stroke-linejoin: miter; stroke-miterlimit: 4; is-custom-font: none; font-file-url: none; fill: rgb(255,218,228); fill-rule: nonzero; opacity: 1;" cx="0" cy="0" r="3"/>
</g>
		<g transform="matrix(1 0 0 1 15.9607 1.8115)" id="Capa_1">
<path style="stroke: none; stroke-width: 1; stroke-dasharray: none; stroke-linecap: butt; stroke-dashoffset: 0; stroke-linejoin: miter; stroke-miterlimit: 4; is-custom-font: none; font-file-url: none; fill: rgb(84,106,121); fill-rule: nonzero; opacity: 1;" transform=" translate(-45.4607, -31.3115)" d="M 49.903 29.739 c 0.119 -0.499 -0.359 -0.91 -0.848 -0.753 c -1.66 0.535 -4.09 0.448 -6.093 -0.863 C 42.978 28.248 43 28.371 43 28.5 c 0 1.304 -0.837 2.403 -2 2.816 c 0 0 3.823 2.809 7 3.184 C 48.896 33.459 49.557 31.183 49.903 29.739 z" stroke-linecap="round"/>
</g>
		<g transform="matrix(1 0 0 1 4.9613 -3.811)" id="Capa_1">
<path style="stroke: none; stroke-width: 1; stroke-dasharray: none; stroke-linecap: butt; stroke-dashoffset: 0; stroke-linejoin: miter; stroke-miterlimit: 4; is-custom-font: none; font-file-url: none; fill: rgb(84,106,121); fill-rule: nonzero; opacity: 1;" transform=" translate(-34.4613, -25.689)" d="M 30.019 27.261 c -0.119 0.499 0.359 0.91 0.848 0.753 c 1.66 -0.535 4.09 -0.448 6.093 0.863 c -0.016 -0.125 -0.038 -0.248 -0.038 -0.376 c 0 -1.304 0.837 -2.403 2 -2.816 c 0 0 -3.823 -2.809 -7 -3.184 C 31.025 23.541 30.364 25.817 30.019 27.261 z" stroke-linecap="round"/>
</g>
		<g transform="matrix(1 0 0 1 5.4495 3.0483)" id="Capa_1">
<path style="stroke: none; stroke-width: 1; stroke-dasharray: none; stroke-linecap: butt; stroke-dashoffset: 0; stroke-linejoin: miter; stroke-miterlimit: 4; is-custom-font: none; font-file-url: none; fill: rgb(84,106,121); fill-rule: nonzero; opacity: 1;" transform=" translate(-34.9495, -32.5483)" d="M 34.343 36.796 c 0.391 0.333 0.974 0.093 1.056 -0.414 c 0.277 -1.722 1.457 -3.848 3.535 -5.037 c -0.118 -0.043 -0.238 -0.079 -0.353 -0.137 c -1.162 -0.592 -1.761 -1.837 -1.601 -3.061 c 0 0 -4.238 2.131 -6.015 4.792 C 31.485 34.21 33.213 35.833 34.343 36.796 z" stroke-linecap="round"/>
</g>
		<g transform="matrix(1 0 0 1 15.4715 -5.0484)" id="Capa_1">
<path style="stroke: none; stroke-width: 1; stroke-dasharray: none; stroke-linecap: butt; stroke-dashoffset: 0; stroke-linejoin: miter; stroke-miterlimit: 4; is-custom-font: none; font-file-url: none; fill: rgb(84,106,121); fill-rule: nonzero; opacity: 1;" transform=" translate(-44.9715, -24.4517)" d="M 45.578 20.204 c -0.391 -0.333 -0.974 -0.093 -1.056 0.414 c -0.277 1.722 -1.457 3.848 -3.535 5.037 c 0.118 0.043 0.238 0.079 0.353 0.137 c 1.162 0.592 1.761 1.837 1.601 3.061 c 0 0 4.238 -2.131 6.015 -4.792 C 48.436 22.79 46.708 21.167 45.578 20.204 z" stroke-linecap="round"/>
</g>
		<g transform="matrix(1 0 0 1 11.8471 5.1917)" id="Capa_1">
<path style="stroke: none; stroke-width: 1; stroke-dasharray: none; stroke-linecap: butt; stroke-dashoffset: 0; stroke-linejoin: miter; stroke-miterlimit: 4; is-custom-font: none; font-file-url: none; fill: rgb(84,106,121); fill-rule: nonzero; opacity: 1;" transform=" translate(-41.3471, -34.6917)" d="M 44.179 37.588 c 0.487 -0.163 0.582 -0.787 0.189 -1.118 c -1.334 -1.124 -2.548 -3.231 -2.497 -5.624 c -0.097 0.079 -0.19 0.163 -0.299 0.232 c -1.106 0.691 -2.482 0.563 -3.448 -0.204 c 0 0 -0.356 4.73 1.009 7.623 C 40.49 38.706 42.771 38.06 44.179 37.588 z" stroke-linecap="round"/>
</g>
		<g transform="matrix(1 0 0 1 9.0749 -7.1917)" id="Capa_1">
<path style="stroke: none; stroke-width: 1; stroke-dasharray: none; stroke-linecap: butt; stroke-dashoffset: 0; stroke-linejoin: miter; stroke-miterlimit: 4; is-custom-font: none; font-file-url: none; fill: rgb(84,106,121); fill-rule: nonzero; opacity: 1;" transform=" translate(-38.5749, -22.3083)" d="M 35.743 19.412 c -0.487 0.163 -0.582 0.787 -0.189 1.118 c 1.334 1.124 2.548 3.231 2.497 5.624 c 0.097 -0.079 0.19 -0.163 0.299 -0.232 c 1.106 -0.691 2.482 -0.563 3.448 0.204 c 0 0 0.356 -4.73 -1.009 -7.623 C 39.431 18.294 37.151 18.94 35.743 19.412 z" stroke-linecap="round"/>
</g>
		<g transform="matrix(1 0 0 1 -14.5 18)" id="Capa_1">
<rect style="stroke: none; stroke-width: 1; stroke-dasharray: none; stroke-linecap: butt; stroke-dashoffset: 0; stroke-linejoin: miter; stroke-miterlimit: 4; is-custom-font: none; font-file-url: none; fill: rgb(243,204,109); fill-rule: nonzero; opacity: 1;" x="-1" y="-1" rx="0" ry="0" width="2" height="2"/>
</g>
		<g transform="matrix(1 0 0 1 -11.5 18)" id="Capa_1">
<rect style="stroke: none; stroke-width: 1; stroke-dasharray: none; stroke-linecap: butt; stroke-dashoffset: 0; stroke-linejoin: miter; stroke-miterlimit: 4; is-custom-font: none; font-file-url: none; fill: rgb(243,204,109); fill-rule: nonzero; opacity: 1;" x="-1" y="-1" rx="0" ry="0" width="2" height="2"/>
</g>
		<g transform="matrix(1 0 0 1 -8.5 18)" id="Capa_1">
<rect style="stroke: none; stroke-width: 1; stroke-dasharray: none; stroke-linecap: butt; stroke-dashoffset: 0; stroke-linejoin: miter; stroke-miterlimit: 4; is-custom-font: none; font-file-url: none; fill: rgb(243,204,109); fill-rule: nonzero; opacity: 1;" x="-1" y="-1" rx="0" ry="0" width="2" height="2"/>
</g>
		<g transform="matrix(1 0 0 1 -5.5 18)" id="Capa_1">
<rect style="stroke: none; stroke-width: 1; stroke-dasharray: none; stroke-linecap: butt; stroke-dashoffset: 0; stroke-linejoin: miter; stroke-miterlimit: 4; is-custom-font: none; font-file-url: none; fill: rgb(243,204,109); fill-rule: nonzero; opacity: 1;" x="-1" y="-1" rx="0" ry="0" width="2" height="2"/>
</g>
		<g transform="matrix(1 0 0 1 -2.5 18)" id="Capa_1">
<rect style="stroke: none; stroke-width: 1; stroke-dasharray: none; stroke-linecap: butt; stroke-dashoffset: 0; stroke-linejoin: miter; stroke-miterlimit: 4; is-custom-font: none; font-file-url: none; fill: rgb(243,204,109); fill-rule: nonzero; opacity: 1;" x="-1" y="-1" rx="0" ry="0" width="2" height="2"/>
</g>
		<g transform="matrix(1 0 0 1 0.5 18)" id="Capa_1">
<rect style="stroke: none; stroke-width: 1; stroke-dasharray: none; stroke-linecap: butt; stroke-dashoffset: 0; stroke-linejoin: miter; stroke-miterlimit: 4; is-custom-font: none; font-file-url: none; fill: rgb(243,204,109); fill-rule: nonzero; opacity: 1;" x="-1" y="-1" rx="0" ry="0" width="2" height="2"/>
</g>
		<g transform="matrix(1 0 0 1 3.5 18)" id="Capa_1">
<rect style="stroke: none; stroke-width: 1; stroke-dasharray: none; stroke-linecap: butt; stroke-dashoffset: 0; stroke-linejoin: miter; stroke-miterlimit: 4; is-custom-font: none; font-file-url: none; fill: rgb(243,204,109); fill-rule: nonzero; opacity: 1;" x="-1" y="-1" rx="0" ry="0" width="2" height="2"/>
</g>
		<g transform="matrix(1 0 0 1 -27 0)" id="Capa_1">
<path style="stroke: none; stroke-width: 1; stroke-dasharray: none; stroke-linecap: butt; stroke-dashoffset: 0; stroke-linejoin: miter; stroke-miterlimit: 4; is-custom-font: none; font-file-url: none; fill: rgb(255,218,228); fill-rule: nonzero; opacity: 1;" transform=" translate(-2.5, -29.5)" d="M 4 7.5 H 1 c -0.553 0 -1 0.447 -1 1 s 0.447 1 1 1 h 2 v 41 c 0 0.553 0.447 1 1 1 s 1 -0.447 1 -1 v -42 C 5 7.947 4.553 7.5 4 7.5 z" stroke-linecap="round"/>
</g>
</g>
</g>
</svg>