<svg xmlns="http://www.w3.org/2000/svg" xmlns:xlink="http://www.w3.org/1999/xlink" version="1.1" width="1000" height="1000" viewBox="0 0 1000 1000" xml:space="preserve">
<desc>Created with Fabric.js 3.5.0</desc>
<defs>
</defs>
<rect x="0" y="0" width="100%" height="100%" fill="#ffffff"/>
<g transform="matrix(1.1364 0 0 1.1364 500.0145 500.0145)" id="418872">
<g style="" vector-effect="non-scaling-stroke">
		<g transform="matrix(1.5625 0 0 1.5625 -2.743 0.0117)" id="SVGRepo_iconCarrier">
<rect style="stroke: rgb(0,0,0); stroke-width: 1; stroke-dasharray: none; stroke-linecap: butt; stroke-dashoffset: 0; stroke-linejoin: miter; stroke-miterlimit: 4; is-custom-font: none; font-file-url: none; fill: rgb(59,59,59); fill-rule: nonzero; opacity: 1;" x="-100.6375" y="-100.6375" rx="0" ry="0" width="201.275" height="201.275"/>
</g>
		<g transform="matrix(1.5625 0 0 1.5625 -2.75 0)" id="SVGRepo_iconCarrier">
<path style="stroke: rgb(0,0,0); stroke-width: 1; stroke-dasharray: none; stroke-linecap: butt; stroke-dashoffset: 0; stroke-linejoin: miter; stroke-miterlimit: 4; is-custom-font: none; font-file-url: none; fill: rgb(255,0,128); fill-rule: nonzero; opacity: 1;" transform=" translate(-254.24, -256)" d="M 354.876 371.827 H 153.604 c -8.388 0 -15.191 -6.802 -15.191 -15.191 V 155.364 c 0 -8.388 6.802 -15.191 15.191 -15.191 h 201.272 c 8.388 0 15.191 6.802 15.191 15.191 v 201.272 C 370.067 365.026 363.266 371.827 354.876 371.827 z M 168.795 341.445 h 170.891 V 170.555 H 168.795 V 341.445 z" stroke-linecap="round"/>
</g>
		<g transform="matrix(1.5625 0 0 1.5625 -58.9594 0.0008)" id="SVGRepo_iconCarrier">
<path style="stroke: rgb(0,0,0); stroke-width: 1; stroke-dasharray: none; stroke-linecap: butt; stroke-dashoffset: 0; stroke-linejoin: miter; stroke-miterlimit: 4; is-custom-font: none; font-file-url: none; fill: rgb(255,0,128); fill-rule: nonzero; opacity: 1;" transform=" translate(-218.266, -256.0005)" d="M 421.337 407.906 H 102.334 V 104.094 h 72.915 c 2.576 0 4.999 -0.647 7.124 -1.777 c 6.646 -1.621 11.584 -7.598 11.584 -14.742 V 16.95 c 0 -8.388 -6.802 -15.191 -15.191 -15.191 c -8.388 0 -15.191 6.802 -15.191 15.191 v 56.763 H 87.144 c -8.388 0 -15.191 6.802 -15.191 15.191 v 72.915 H 15.191 C 6.802 161.818 0 168.621 0 177.009 S 6.802 192.2 15.191 192.2 h 56.763 v 48.61 H 45.591 c -8.388 0 -15.191 6.802 -15.191 15.191 s 6.802 15.191 15.191 15.191 h 26.362 v 48.61 H 15.191 C 6.802 319.8 0 326.603 0 334.991 s 6.802 15.191 15.191 15.191 h 56.763 v 72.915 c 0 8.388 6.802 15.191 15.191 15.191 h 72.915 v 56.763 c 0 8.388 6.802 15.191 15.191 15.191 c 8.388 0 15.191 -6.802 15.191 -15.191 v -56.763 h 48.61 v 26.362 c 0 8.388 6.802 15.191 15.191 15.191 c 8.388 0 15.191 -6.802 15.191 -15.191 v -26.362 h 48.61 v 56.763 c 0 8.388 6.802 15.191 15.191 15.191 s 15.191 -6.802 15.191 -15.191 v -56.763 h 72.915 c 8.388 0 15.191 -6.802 15.191 -15.191 S 429.726 407.906 421.337 407.906 z" stroke-linecap="round"/>
</g>
		<g transform="matrix(1.5625 0 0 1.5625 189.5063 -125.0453)" id="SVGRepo_iconCarrier">
<path style="stroke: rgb(0,0,0); stroke-width: 1; stroke-dasharray: none; stroke-linecap: butt; stroke-dashoffset: 0; stroke-linejoin: miter; stroke-miterlimit: 4; is-custom-font: none; font-file-url: none; fill: rgb(255,0,128); fill-rule: nonzero; opacity: 1;" transform=" translate(-377.284, -175.971)" d="M 496.809 319.8 h -56.763 v -48.61 h 26.362 c 8.388 0 15.191 -6.802 15.191 -15.191 s -6.802 -15.191 -15.191 -15.191 h -26.362 V 192.2 h 56.763 c 8.388 0 15.191 -6.802 15.191 -15.191 c 0 -8.388 -6.802 -15.191 -15.191 -15.191 h -56.763 V 88.904 c 0 -8.388 -6.802 -15.191 -15.191 -15.191 h -72.915 V 16.95 c 0 -8.388 -6.802 -15.191 -15.191 -15.191 S 321.56 8.562 321.56 16.95 v 56.763 h -48.61 V 47.351 c 0 -8.388 -6.802 -15.191 -15.191 -15.191 s -15.191 6.802 -15.191 15.191 v 40.223 c 0 0.225 0.024 0.444 0.033 0.665 c -0.009 0.222 -0.033 0.441 -0.033 0.665 c 0 8.388 6.802 15.191 15.191 15.191 h 151.906 v 223.285 c -1.429 2.241 -2.189 4.835 -2.189 7.612 c 0 8.388 6.802 15.191 15.191 15.191 h 70.624 c 8.388 0 15.191 -6.802 15.191 -15.191 S 501.68 319.8 496.809 319.8 z" stroke-linecap="round"/>
</g>
</g>
</g>
</svg>